<svg width="69" height="69" viewBox="0 0 69 69" fill="none" xmlns="http://www.w3.org/2000/svg">
<g clip-path="url(#clip0_23_500)">
<path d="M66.678 30.9316C66.7477 31.6342 66.7938 32.3457 66.782 33.0555C66.7706 33.7463 65.8016 35.246 65.6492 35.9239C65.5112 36.5386 66.1525 36.2979 65.8744 36.8626C65.6445 37.3297 65.4033 37.7931 65.2114 38.2754C64.7646 39.3411 64.2375 40.3837 63.8366 41.472C63.5386 42.2625 63.1377 43.0645 63.218 43.9353C63.2784 44.7006 63.2582 45.513 63.3613 46.285C63.4342 46.8306 63.1234 48.4949 63.3914 48.9693C64.0397 50.117 64.8636 49.8738 65.0585 50.6065C65.4849 52.2105 65.0302 53.0328 64.5927 54.0058C64.666 55.1451 63.7041 55.6564 63.3914 56.7464C63.2639 57.1908 63.9242 58.2552 63.7451 58.6798C63.3661 59.5994 62.3108 60.1111 61.8861 61.0112C61.4375 61.9618 61.6136 63.2977 60.9839 64.1453C60.0444 65.4396 58.7321 66.709 57.1574 66.8719C56.4763 66.9422 55.6156 67.6725 54.8617 67.7848C53.9869 67.915 53.2054 67.4671 52.2195 68.201C50.7071 68.4358 49.87 68.1619 48.339 68.2865C46.9587 68.3988 44.8858 68.9219 43.5006 68.9112C41.7525 68.8938 41.5556 67.6337 39.8093 67.5339C39.2669 67.5029 37.841 67.6018 37.3006 67.5339C36.3981 67.4237 35.1869 67.9298 34.2901 67.7848C33.6956 67.6886 34.9401 66.2987 34.3464 66.1799C33.5671 65.9965 32.7653 65.8591 32.0323 65.5269C31.6752 65.3668 30.6827 65.0024 30.2178 63.9516C29.8171 63.0461 29.9334 61.4466 29.716 61.1921C28.3869 59.5651 27.7702 60.8524 27.1172 58.8359C26.8051 58.0169 23.0587 58.868 23.0009 58.0007C22.9397 57.0847 23.5946 56.1473 23.7535 55.2411C23.9253 54.3475 24.8718 53.5585 25.3074 52.7455C25.8342 51.829 26.854 51.4048 27.7704 50.9811C30.0619 50.0646 32.4678 49.3886 34.8964 48.9648C35.9943 50.0262 37.3757 50.2898 38.6768 50.1107C39.061 50.0578 39.6994 48.8393 40.0602 48.7184C41.8418 48.1214 42.9634 47.9336 42.8198 47.0015C42.3961 46.5204 44.4517 44.5537 43.8558 44.5768C43.3173 44.5994 43.1225 45.2068 42.6873 45.4473C42.2749 45.6881 41.7822 45.4932 41.324 45.562C38.7233 45.9057 36.1225 46.3184 33.5217 46.7421C32.5021 46.9254 31.4711 47.063 30.44 47.1776C29.3286 47.2922 28.2288 47.5557 27.1059 47.4182C26.3153 47.3036 25.5248 47.0745 24.849 46.6505C24.1246 46.193 24.0772 45.5864 23.5026 44.9553C23.0414 44.4487 22.0197 43.9467 21.6983 43.3395C21.2912 42.6064 20.1258 42.7499 19.9143 41.9449C19.7092 41.1647 20.4535 39.4373 20.3464 38.6421C20.0601 36.2476 20.0142 33.7386 20.8275 31.4358C21.5859 30.5541 22.9435 30.4482 23.5026 29.903C23.7288 29.6824 25.0916 28.7482 26.2622 28.6486C27.4147 28.5506 28.3758 29.2867 28.5201 29.1504C29.0487 28.8423 29.6855 28.4779 29.7744 28.1469C30.0229 27.2225 28.7837 26.3359 30.4287 25.948C31.9099 26.0146 33.4402 26.3792 34.8701 26.0264C35.5233 25.8652 36.1556 25.5543 36.7526 24.9969C38.2765 24.8366 39.8003 24.6989 41.324 24.5501C41.748 24.5045 42.1718 24.5845 42.5957 24.5389C42.951 24.4929 42.9738 24.0462 43.0081 23.7712C43.031 23.2785 43.1228 22.7055 42.7676 22.3161C42.5383 22.064 42.1374 21.789 41.8165 22.0755C41.4044 22.3964 40.8542 22.4764 40.3617 22.3389C39.3191 22.0871 38.2537 22.1558 37.1997 22.1671C36.6148 22.1793 36.0292 22.1874 35.4436 22.1997C35.0951 22.207 34.7468 22.2158 34.3986 22.2277C34.1569 22.236 34.2807 21.3614 34.0393 21.3733C33.6798 21.3911 33.1435 21.5952 32.7849 21.6242C32.6132 21.6381 32.2536 22.3564 32.0822 22.3735C31.5907 22.4227 31.1004 22.486 30.6118 22.5683C29.008 22.8661 28.5499 21.5532 27.0148 22.126C26.4306 22.2293 25.8004 22.1949 25.2392 21.9769C24.6318 21.7363 23.9903 21.5304 23.5092 21.072C23.2589 20.8277 23.0413 20.5538 22.8396 20.2683C22.6441 19.9917 22.4637 19.7042 22.2831 19.4223C22.0359 18.9898 22.1284 18.7105 21.9006 18.2688C21.6215 17.7274 19.8753 18.6182 19.7051 18.0315C19.5204 17.3884 19.5578 16.5463 19.4887 15.8541C19.4077 15.0438 19.2368 14.3803 19.2378 13.5963C19.2387 12.8898 19.0968 12.3124 19.2467 11.6154C19.3518 11.106 19.7516 11.1215 19.9143 10.5858C20.0141 10.2569 19.8475 9.77839 19.9143 9.33146C19.9877 8.84003 20.2979 8.38141 20.4922 8.07705C20.7172 7.72453 21.0543 7.43263 21.2448 7.0736C21.587 6.42852 21.5582 5.83594 22.0077 5.25703C22.2416 4.95604 22.4601 4.60201 22.75 4.56486C23.0562 4.5256 23.4357 4.80612 23.7535 4.56486C24.0069 4.37478 24.7431 3.98739 25.0079 3.81224C25.2506 3.65166 25.2572 3.2034 25.5096 3.05962C26.2267 2.6511 26.6627 1.85929 27.4614 1.64795C28.1029 1.48256 28.7488 1.33035 29.3991 1.20469C30.2353 1.04309 31.0787 0.925439 31.9294 0.880282C32.5945 0.822722 33.6252 0.0678766 34.2901 0.0491515C35.0802 0.0268741 35.5045 0.744932 36.2946 0.720005C37.459 0.690322 38.8958 1.75055 40.0602 1.80528C41.1413 1.85604 41.9502 0.899128 43.0313 0.937783C45.0591 1.00648 47.0869 0.811584 49.1149 0.720006C50.4666 0.674367 51.7842 0.284752 53.1362 0.39915C54.0625 0.466344 54.9732 0.698692 55.8359 1.05248C56.4455 1.30247 56.3185 1.95123 56.8687 2.30701C57.3487 2.61901 58.5445 2.59914 59.0012 2.95004C59.4166 3.26915 59.81 3.6153 60.1593 4.00816C60.5465 4.44426 60.8887 4.91835 61.1839 5.42044C61.6487 6.21099 61.4109 7.43793 61.6353 8.32795C61.8137 9.00446 62.5542 9.32839 62.6187 10.0275C62.6536 10.4059 62.6621 10.7867 62.634 11.1689C62.5764 11.8906 62.5078 12.6352 62.2902 13.3339C62.1299 13.9069 61.935 14.4796 61.8091 15.0639C61.5457 16.2327 61.0757 17.3897 61.156 18.6042C61.1822 19.2407 61.1436 20.2952 61.3844 20.8716C61.564 21.3015 61.9979 21.2634 62.1986 21.6746C62.4248 22.0688 62.1366 22.7533 62.3879 23.1294C62.6789 23.5649 63.5118 23.6903 63.8038 24.1232C64.1538 24.6421 64.4918 25.1673 64.7876 25.719C65.246 26.578 65.7503 27.4259 66.0939 28.3426C66.3802 29.1787 66.5633 30.0495 66.678 30.9316Z" fill="#D69AF5" stroke="#09BCE0" stroke-width="0.000340314"/>
<path d="M19.8653 27.4373C19.9453 27.8841 19.9227 28.3424 19.8306 28.7895C19.6819 29.4881 19.2579 30.0953 18.9942 30.7598C18.6162 31.7565 18.0896 32.7076 17.7459 33.7156C17.4022 34.6779 17.5166 35.7208 17.6312 36.706C17.6997 37.5652 18.0321 38.3786 18.0778 39.2378C18.1124 40.166 17.6997 41.0368 17.207 41.8045C16.6342 42.7094 16.0156 43.5801 15.3739 44.4281C14.7668 45.2299 14.0335 45.9517 13.1742 46.4785C11.7422 47.2923 9.93197 47.0743 8.48845 46.3869C7.64076 45.9973 6.89615 45.3789 6.36908 44.5994C5.68167 43.7059 5.38363 42.5947 5.06302 41.529C4.96445 41.1717 4.91851 40.7782 4.88744 40.3751C4.83639 39.7135 4.82537 39.0264 4.68719 38.4327C4.58008 37.9724 4.42552 37.5478 4.26488 37.1307C4.01013 36.4695 4.30625 36.6604 4.18541 35.9239C4.14573 35.6794 3.72149 34.6634 3.68368 34.4187C3.61065 33.9461 3.36048 33.4111 3.29394 32.938C3.23265 32.5015 3.17388 32.0648 3.11753 31.6278C3.06671 31.2339 3.01783 30.8397 2.97062 30.4454C2.86429 29.5571 3.02222 28.7863 2.93106 27.896C2.86863 27.2866 2.55373 26.5582 2.49659 25.9478C2.45059 25.4897 2.71835 24.3411 2.68017 23.882C2.62014 23.1592 2.26015 23.1251 2.22089 22.4003C2.1829 21.6977 2.44626 18.8158 2.42934 18.112C2.40297 17.0159 2.90162 17.453 2.93106 16.3558C2.9767 15.2676 2.51941 14.8116 3.25246 13.9867C3.92856 13.2193 4.845 12.7494 5.65861 12.1536C7.19371 11.0769 8.93527 10.126 10.8371 10.0342C12.2347 9.9542 13.5064 10.607 14.7093 11.2028C15.2821 11.329 15.8094 11.7412 16.0154 12.3026C16.1185 12.9903 15.9813 13.6774 15.9697 14.3763C15.9007 15.6023 16.1531 16.8281 16.4396 18.0195C16.8061 19.532 17.276 21.0214 17.8947 22.4534C18.353 23.5648 18.9026 24.6302 19.2922 25.7644C19.4985 26.3144 19.7737 26.853 19.8653 27.4373Z" fill="#1BDFCB"/>
</g>
<defs>
<clipPath id="clip0_23_500">
<rect width="69" height="69" fill="white" transform="translate(69) rotate(90)"/>
</clipPath>
</defs>
</svg>
